<svg id="图层_1" data-name="图层 1" xmlns="http://www.w3.org/2000/svg" viewBox="0 0 46 46"><defs><style>.cls-1{fill:#c7c7cc;}.cls-2{fill:#fff;}</style></defs><title>avatar</title><path class="cls-1" d="M25,2a23,23,0,0,0-1.74,45.93h.07c.55,0,1.11.07,1.67.07s1.12,0,1.67-.07h.07A23,23,0,0,0,25,2Z" transform="translate(-2 -2.01)"/><path class="cls-2" d="M34.68,37.25c-2.09-.73-4.06-1.43-4.6-2.63A26,26,0,0,1,30,31.87v-.39a9.65,9.65,0,0,0,2.38-4.27c.66-.36,1.47-1.2,1.71-3.22a3.1,3.1,0,0,0-.56-2.3c.54-1.86,1.61-6.55-.27-9.58A5.22,5.22,0,0,0,29.7,9.7C28.81,8.6,27.13,8,24.9,8c-3.4.06-5.9,1.1-7.41,3.1-1.78,2.35-2.12,5.9-1,10.55A3.09,3.09,0,0,0,15.9,24c.24,2,1,2.86,1.71,3.21A9.64,9.64,0,0,0,20,31.48v.38a26.08,26.08,0,0,1-.07,2.76c-.54,1.21-2.53,1.91-4.62,2.65A20.86,20.86,0,0,0,10,39.7a20.86,20.86,0,0,0,13.37,6.24h.07c.5,0,1,.06,1.52.06s1,0,1.52-.06h.07A20.91,20.91,0,0,0,40,39.7,20.43,20.43,0,0,0,34.68,37.25Z" transform="translate(-2 -2.01)"/></svg>