<?xml version="1.0" encoding="utf-8"?>
<!-- Generator: Adobe Illustrator 25.2.1, SVG Export Plug-In . SVG Version: 6.00 Build 0)  -->
<svg version="1.1" id="图层_1" xmlns="http://www.w3.org/2000/svg" xmlns:xlink="http://www.w3.org/1999/xlink" x="0px" y="0px"
	 viewBox="0 0 30 30" style="enable-background:new 0 0 30 30;" xml:space="preserve">
<style type="text/css">
	.st0{fill:#FF9500;}
	.st1{fill:none;}
</style>
<path class="st0" d="M15,2.6c-0.3,0-0.7,0.1-0.8,0.4L10,9.4l-7.3,2C2.4,11.4,2.2,11.7,2,12c-0.1,0.3,0,0.7,0.2,0.9L7,18.8l-0.4,7.5
	c0,0.3,0.1,0.7,0.4,0.9c0.1,0.1,0.2,0.1,0.3,0.1c0,0,0.1,0,0.1,0c0.1,0,0.1,0,0.2,0c0,0,0,0,0,0c0,0,0,0,0,0c0.1,0,0.2,0,0.3-0.1
	l7.1-2.7l7.1,2.7c0.1,0,0.2,0.1,0.4,0.1c0.2,0,0.4-0.1,0.6-0.2c0.3-0.2,0.4-0.5,0.4-0.9L23,18.8l4.8-5.9c0.2-0.3,0.3-0.6,0.2-0.9
	c-0.1-0.3-0.4-0.6-0.7-0.7l-7.3-2L15.8,3C15.7,2.7,15.3,2.6,15,2.6z M15,5.4l3.3,5l0.4,0.6l0.7,0.2l5.8,1.6l-3.8,4.7L21,18.1l0,0.8
	l0.3,6l-5.6-2.2L15,22.5V5.4z"/>
<rect class="st1" width="30" height="30"/>
</svg>
