<?xml version="1.0" encoding="utf-8"?>
<!-- Generator: Adobe Illustrator 25.2.1, SVG Export Plug-In . SVG Version: 6.00 Build 0)  -->
<svg version="1.1" id="图层_1" xmlns="http://www.w3.org/2000/svg" xmlns:xlink="http://www.w3.org/1999/xlink" x="0px" y="0px"
	 viewBox="0 0 24 24" style="enable-background:new 0 0 24 24;" xml:space="preserve">
<style type="text/css">
	.st0{fill:#fff;}
	.st1{fill:none;}
</style>
<path class="st0" d="M9,2C5.1,2,2,5.1,2,9s3.1,7,7,7c1.7,0,3.3-0.7,4.6-1.7l0.4,0.4V16l6,6l2-2l-6-6h-1.3l-0.4-0.4
	C15.3,12.3,16,10.7,16,9C16,5.1,12.9,2,9,2z M9,4c2.8,0,5,2.2,5,5s-2.2,5-5,5s-5-2.2-5-5S6.2,4,9,4z M8,6v2H6v2h2v2h2v-2h2V8h-2V6H8
	z"/>
<rect class="st1" width="24" height="24"/>
</svg>
