<?xml version="1.0" encoding="utf-8"?>
<!-- Generator: Adobe Illustrator 25.2.1, SVG Export Plug-In . SVG Version: 6.00 Build 0)  -->
<svg version="1.1" id="图层_1" xmlns="http://www.w3.org/2000/svg" xmlns:xlink="http://www.w3.org/1999/xlink" x="0px" y="0px"
	 viewBox="0 0 50 50" style="enable-background:new 0 0 50 50;" xml:space="preserve">
<style type="text/css">
	.st0{fill:#080402;}
	.st1{fill:none;}
</style>
<path class="st0" d="M26.8,5c-4.5,0-7.7,1.8-9.4,4.4c-0.4,0.5-0.6,1.1-0.8,1.7l-0.2-0.5c-0.2-0.3-0.5-0.6-0.9-0.6
	c-3.5,0-6,1.4-7.4,3.5c-1.2,1.9-1.3,4.3-0.5,6.6c-0.1,0.1-0.2,0.2-0.2,0.3C7,20.8,6.9,21.3,7,21.9c0,0,0,0,0,0
	c0.1,0.9,0.3,1.6,0.7,2.1c0.2,0.2,0.4,0.2,0.6,0.3c0.1,0.7,0.4,1.5,0.7,2.1c0.2,0.4,0.4,0.7,0.6,1c0.1,0.1,0.2,0.2,0.2,0.2
	c0,0.8,0,1.5-0.1,2.3c-0.2,0.5-0.6,0.9-1.4,1.3c-0.8,0.4-2,0.8-3.1,1.3s-2.4,1.1-3.4,2.2S0.1,37.2,0,39c0,0.3,0.1,0.5,0.3,0.7
	C0.5,40,0.7,40.1,1,40.1h6.2c-0.2,0.6-0.3,1.2-0.3,1.8c0,0.3,0.1,0.5,0.3,0.7C7.4,42.9,7.6,43,7.9,43h34.2c0.3,0,0.5-0.1,0.7-0.3
	c0.2-0.2,0.3-0.5,0.3-0.7c0-0.7-0.2-1.3-0.3-1.9H49c0.3,0,0.5-0.1,0.7-0.3c0.2-0.2,0.3-0.5,0.3-0.7c-0.1-1.8-0.8-3.2-1.8-4.2
	s-2.2-1.6-3.3-2.2s-2.3-0.9-3.1-1.3c-0.8-0.4-1.2-0.8-1.4-1.3c-0.1-0.8-0.1-1.5-0.1-2.3c0.1-0.1,0.2-0.2,0.2-0.2
	c0.2-0.3,0.4-0.6,0.5-1c0.3-0.6,0.5-1.3,0.6-2c0.2-0.1,0.4-0.1,0.6-0.3c0.4-0.5,0.6-1.2,0.7-2.1c0.1-0.6,0-1.1-0.2-1.5
	c0-0.1-0.2-0.2-0.3-0.3c0.2-0.5,0.5-1,0.5-1.6c0.1-0.9,0-2-0.2-3s-0.7-2-1.5-2.8c-0.6-0.6-1.6-1-2.6-1.2l-0.4-0.9
	c-0.2-0.4-0.5-0.6-0.9-0.6c-1.4,0-2.9,0.1-4.2,0.6c-0.4-0.8-0.8-1.5-1.5-2.2c-0.9-0.8-2.1-1.3-3.4-1.5l-0.6-1.3
	C27.6,5.2,27.2,5,26.8,5z M26.2,7.1l0.5,1.2c0.2,0.4,0.5,0.6,0.9,0.6c1.2,0,2.1,0.4,2.8,1s1.1,1.5,1.4,2.6s0.3,2.1,0.2,3.1
	c-0.1,0.9-0.4,1.7-0.6,1.9c-0.2,0.2-0.3,0.6-0.2,0.9c0.1,0.3,0.3,0.6,0.6,0.7c0,0,0,0,0,0.1c0.1,0.1,0.1,0.4,0.1,0.8c0,0,0,0,0,0.1
	c-0.1,0.8-0.4,1.3-0.5,1.5c-0.1,0.1-0.1,0.1-0.2,0.2c-0.5,0-0.8,0.4-0.9,0.9c-0.1,0.7-0.4,1.7-0.7,2.5c-0.2,0.4-0.4,0.7-0.5,0.9
	c-0.1,0.2-0.2,0.2-0.2,0.2c-0.3,0.2-0.5,0.5-0.5,0.9c0,1.3,0,2.3,0.1,3.9c0,0.1,0,0.2,0.1,0.3c0.5,1.4,1.7,2.3,3.1,2.9
	s2.8,1.1,4.2,1.8s2.7,1.3,3.7,2.3c0.7,0.8,1.2,1.7,1.4,3H9.2c0.3-1.2,0.7-2.2,1.4-3c0.9-1,2.2-1.7,3.7-2.3s2.9-1.1,4.2-1.8
	s2.5-1.5,3.1-2.9c0-0.1,0.1-0.2,0.1-0.3c0.1-1.4,0.1-2.6,0.1-3.9c0-0.4-0.2-0.7-0.5-0.9c0,0,0,0,0,0c0,0,0,0,0,0
	c0,0-0.1-0.1-0.2-0.2c-0.2-0.2-0.4-0.5-0.6-0.9c-0.4-0.7-0.7-1.7-0.8-2.4c0-0.4-0.4-0.8-0.8-0.9c-0.1,0-0.6,0-0.8-1.7
	c-0.1-0.8,0.3-1,0.2-1c0.4-0.3,0.6-0.8,0.4-1.2c-0.6-1.5-0.8-3-0.6-4.4c0.2-0.3,0.3-0.6,0.2-0.9c0.2-0.6,0.5-1.2,0.8-1.8
	C20.3,8.6,22.6,7.2,26.2,7.1z M36.8,12.1l0.3,0.7c0.1,0.4,0.5,0.6,0.9,0.6c0.9,0,1.4,0.3,1.9,0.7s0.8,1.1,1,1.9
	c0.2,0.8,0.3,1.6,0.2,2.3s-0.3,1.3-0.4,1.4c-0.2,0.2-0.2,0.5-0.2,0.8c0.1,0.3,0.2,0.5,0.5,0.7c0,0.1,0.1,0.3,0,0.5
	c-0.1,0.7-0.2,1-0.3,1.1c-0.5,0.1-0.8,0.4-0.9,0.9c0,0.5-0.3,1.2-0.5,1.8c-0.1,0.3-0.3,0.5-0.4,0.7c-0.1,0.1-0.2,0.2-0.2,0.2
	c-0.3,0.2-0.4,0.5-0.4,0.8c0,1.1,0,1.9,0.1,3.1c0,0.1,0,0.2,0.1,0.2c0.4,1.2,1.4,1.9,2.4,2.4s2.2,0.9,3.2,1.4s2,1,2.7,1.8
	c0.5,0.5,0.8,1.1,1,1.9H42c0,0-0.1,0-0.1,0c-0.3-0.5-0.7-1-1.1-1.4c-1.2-1.3-2.8-2.1-4.3-2.7s-3-1.2-4.1-1.7c-1.1-0.5-1.7-1.1-2-1.8
	c-0.1-1.2-0.1-2.1-0.1-3.2c0.1-0.1,0.3-0.2,0.4-0.3c0.3-0.4,0.5-0.8,0.7-1.2c0.4-0.8,0.6-1.8,0.8-2.7c0.3-0.2,0.6-0.2,0.8-0.4
	c0.4-0.6,0.7-1.4,0.9-2.5c0,0,0,0,0-0.1c0.1-0.7,0-1.3-0.2-1.8c-0.1-0.1-0.2-0.2-0.3-0.3c0.3-0.7,0.5-1.4,0.6-2.2
	c0.1-1,0.1-2.1-0.2-3.2C34.7,12.2,35.8,12.1,36.8,12.1z M14.8,12.1l0.4,0.7c0.1,0.3,0.4,0.5,0.8,0.6c-0.1,1.5,0.1,3,0.6,4.4
	C16.2,18.3,15.9,19,16,20c0.2,1.7,1,2.6,1.7,3c0.2,1,0.4,1.9,0.8,2.7c0.2,0.5,0.5,0.9,0.8,1.2c0.1,0.1,0.3,0.2,0.4,0.3
	c0,1.1,0,2-0.1,3.1c-0.3,0.7-0.9,1.2-2,1.8c-1.1,0.6-2.6,1.1-4.1,1.7c-1.5,0.7-3,1.4-4.3,2.7c-0.4,0.4-0.8,0.9-1.1,1.5c0,0,0,0,0,0
	H2.2c0.2-0.8,0.5-1.4,1-1.9c0.7-0.7,1.7-1.3,2.7-1.8s2.2-0.8,3.2-1.4s2-1.2,2.4-2.4c0-0.1,0.1-0.2,0.1-0.3c0.1-1.2,0.1-2.1,0.1-3.1
	c0-0.4-0.2-0.7-0.5-0.9c0,0-0.1-0.1-0.2-0.2c-0.1-0.2-0.3-0.4-0.4-0.7c-0.3-0.6-0.5-1.3-0.6-1.9c-0.1-0.4-0.4-0.8-0.9-0.8
	c-0.1-0.1-0.2-0.4-0.3-1.1c0-0.3,0-0.4,0.1-0.5c0.4-0.3,0.6-0.8,0.3-1.2c-0.8-1.9-0.7-3.8,0.3-5.3C10.6,13.2,12.3,12.3,14.8,12.1z"
	/>
<rect x="0" class="st1" width="50" height="50"/>
</svg>
