<?xml version="1.0" encoding="utf-8"?>
<!-- Generator: Adobe Illustrator 25.2.1, SVG Export Plug-In . SVG Version: 6.00 Build 0)  -->
<svg version="1.1" id="图层_1" xmlns="http://www.w3.org/2000/svg" xmlns:xlink="http://www.w3.org/1999/xlink" x="0px" y="0px"
	 viewBox="0 0 24 24" style="enable-background:new 0 0 24 24;" xml:space="preserve">
<style type="text/css">
	.st0{fill:#878787;}
	.st1{fill:none;}
</style>
<path class="st0" d="M12,3C9.7,3,7.7,4.2,6.4,6C2.9,6.1,0,8.9,0,12.5C0,16.1,2.9,19,6.5,19H9v-2H6.5C4,17,2,15,2,12.5S4,8,6.5,8
	c0,0,0.1,0,0.2,0l0.6,0l0.3-0.5C8.5,6,10.1,5,12,5c2.5,0,4.6,1.8,4.9,4.2l0.2,1l1-0.1c0.2,0,0.4-0.1,0.5-0.1c1.9,0,3.5,1.6,3.5,3.5
	S20.4,17,18.5,17H15v2h3.5c3,0,5.5-2.5,5.5-5.5c0-3-2.4-5.4-5.4-5.5C17.7,5.1,15.2,3,12,3z M12,9l-4,4h3v8h2v-8h3L12,9z"/>
<rect class="st1" width="24" height="24"/>
</svg>
