<?xml version="1.0" encoding="utf-8"?>
<!-- Generator: Adobe Illustrator 25.2.1, SVG Export Plug-In . SVG Version: 6.00 Build 0)  -->
<svg version="1.1" id="图层_1" xmlns="http://www.w3.org/2000/svg" xmlns:xlink="http://www.w3.org/1999/xlink" x="0px" y="0px"
	 viewBox="0 0 24 24" style="enable-background:new 0 0 24 24;" xml:space="preserve">
<style type="text/css">
	.st0{fill:#080402;}
	.st1{fill:none;}
</style>
<path class="st0" d="M12,2C6.5,2,2,6.5,2,12s4.5,10,10,10s10-4.5,10-10S17.5,2,12,2z M12,4c4.4,0,8,3.6,8,8s-3.6,8-8,8s-8-3.6-8-8
	S7.6,4,12,4z M8.7,7.3L7.3,8.7l3.3,3.3l-3.3,3.3l1.4,1.4l3.3-3.3l3.3,3.3l1.4-1.4L13.4,12l3.3-3.3l-1.4-1.4L12,10.6L8.7,7.3z"/>
<rect class="st1" width="24" height="24"/>
</svg>
