<?xml version="1.0" encoding="utf-8"?>
<!-- Generator: Adobe Illustrator 25.2.1, SVG Export Plug-In . SVG Version: 6.00 Build 0)  -->
<svg version="1.1" id="图层_1" xmlns="http://www.w3.org/2000/svg" xmlns:xlink="http://www.w3.org/1999/xlink" x="0px" y="0px"
	 viewBox="0 0 24 24" style="enable-background:new 0 0 24 24;" xml:space="preserve">
<style type="text/css">
	.st0{fill:#878787;}
	.st1{fill:none;}
</style>
<path class="st0" d="M12,2C6.5,2,2,6.5,2,12s4.5,10,10,10s10-4.5,10-10S17.5,2,12,2z M9.2,4.5L12,5.7l2.8-1.2
	c1.3,0.5,2.5,1.3,3.3,2.4L18,10.1l2,2.3c-0.1,1.5-0.5,2.8-1.3,4l-3.1,0.7l-1.6,2.6C13.4,19.9,12.7,20,12,20s-1.4-0.1-2.1-0.3
	l-1.6-2.6l-3.1-0.7c-0.7-1.2-1.2-2.5-1.3-4l2-2.3L5.8,6.9C6.7,5.9,7.9,5,9.2,4.5z M12,8.4l-3.8,2.7l1.5,4.4h4.5l1.5-4.4L12,8.4z"/>
<rect class="st1" width="24" height="24"/>
</svg>
