<?xml version="1.0" encoding="utf-8"?>
<!-- Generator: Adobe Illustrator 25.2.1, SVG Export Plug-In . SVG Version: 6.00 Build 0)  -->
<svg version="1.1" id="图层_1" xmlns="http://www.w3.org/2000/svg" xmlns:xlink="http://www.w3.org/1999/xlink" x="0px" y="0px"
	 viewBox="0 0 30 30" style="enable-background:new 0 0 30 30;" xml:space="preserve">
<style type="text/css">
	.st0{fill:#BFBDBC;}
	.st1{fill:none;}
</style>
<path class="st0" d="M28,12c-0.1-0.3-0.4-0.6-0.7-0.7l-7.3-2L15.8,3c-0.4-0.6-1.3-0.6-1.7,0L10,9.4l-7.3,2C2.4,11.4,2.2,11.7,2,12
	c-0.1,0.3,0,0.7,0.2,0.9L7,18.8l-0.4,7.6c0,0.3,0.1,0.7,0.4,0.9c0.3,0.2,0.6,0.2,0.9,0.1l7.1-2.7l7.1,2.7c0.1,0,0.2,0.1,0.4,0.1
	c0.2,0,0.4-0.1,0.6-0.2c0.3-0.2,0.4-0.5,0.4-0.9L23,18.8l4.8-5.9C28,12.7,28.1,12.3,28,12z"/>
<rect class="st1" width="30" height="30"/>
</svg>
