<?xml version="1.0" encoding="utf-8"?>
<!-- Generator: Adobe Illustrator 25.2.1, SVG Export Plug-In . SVG Version: 6.00 Build 0)  -->
<svg version="1.1" id="图层_1" xmlns="http://www.w3.org/2000/svg" xmlns:xlink="http://www.w3.org/1999/xlink" x="0px" y="0px"
	 viewBox="0 0 50 50" style="enable-background:new 0 0 50 50;" xml:space="preserve">
<style type="text/css">
	.st0{fill:none;}
	.st1{fill:#303030;}
</style>
<rect y="0" class="st0" width="50" height="50"/>
<path class="st1" d="M37.5,14.7c0-6.9-5.6-12.5-12.5-12.5S12.5,7.8,12.5,14.7c0,5,2.9,9.2,7.1,11.3c-8.3,2.3-14.4,9.9-14.4,18.9l0,0
	c0,0.6,0.4,1,1,1s1-0.4,1-1l0,0c0.1-9.7,8-17.6,17.8-17.7l0,0l0,0C31.9,27.2,37.5,21.6,37.5,14.7z"/>
<circle class="st1" cx="25" cy="14.7" r="10.5"/>
<path class="st1" d="M34.6,27.7L34.6,27.7c-0.2-0.1-0.3-0.1-0.5-0.1c-0.5,0-1,0.4-1,1c0,0.4,0.2,0.7,0.5,0.8l0,0
	c5.5,3,9.2,8.8,9.2,15.4l0,0c0,0.6,0.4,1,1,1s1-0.4,1-1l0,0C44.8,37.5,40.6,31,34.6,27.7z"/>
</svg>
